#!OML:ASF F:\VICON\USERDATA\INSTALL\rory3\rory3.ASF
:FULLY-SPECIFIED
:DEGREES
46
root -0.17230151226571463 16.94504394146601 20.065308945889957 3.1524223643539573 -3.080598674973086 -5.54679968654158
lfemur -25.20112518955532 6.996316933159971 -9.50985638144564
ltibia 102.2685052061049
lfoot 3.7260313906555886 -5.960174615744268
ltoes -2.424003588577417
rfemur -20.408704997774578 4.783591003825713 36.23174864345306
rtibia 58.41657631412749
rfoot -19.76012340442999 -17.50804023117246
rtoes 2.2785845119975767
lowerback 17.353367383661297 0.7626443606637583 3.5998106421662586
upperback -0.021805574976400566 2.0718170744575795 3.9136311558461587
thorax -10.178614559605972 0.9016909388719444 1.5197349978972183
lowerneck -22.126472012850286 -2.7306949020149003 -1.4549224192686698
upperneck 12.48526758578506 -3.434142046554819 1.4765903874064066
head 7.454253721983413 -1.5728847851491663 0.19551269401915988
lclavicle -1.4458770092715014e-15 1.9888657471536087e-15
lhumerus -50.76266581682869 -14.60353041209323 100.15482387254188
lradius 94.96977158760514
lwrist 32.64325113147852
lhand -25.001399616941118 2.8406498598612604
lfingers 7.12502
lthumb 1.5102253763512894 32.81152307653501
rclavicle -1.4458770092715014e-15 1.9888657471536087e-15
rhumerus -44.45492803913035 9.478846022236604 -95.4436155242744
rradius 106.81517167970603
rwrist -9.604266828771005
rhand -17.479373683245385 39.52025172203078
rfingers 7.12502
rthumb 8.772302744104776 9.447814586748574
47
root -0.20437622144648845 16.97180641444629 20.288525929493197 3.4838692540209917 -2.3288152062677567 -5.873112770212993
lfemur -31.36334271694902 6.789549856934809 -9.662069691098228
ltibia 101.96150142338959
lfoot 1.1425499492784845 -5.154798860311942
ltoes -3.596447616316265
rfemur -16.93192126793684 4.186972921398089 36.42753322807265
rtibia 56.59100350966049
rfoot -20.543494669878342 -18.10803189529182
rtoes -2.869084440934731
lowerback 17.182080709025318 0.942351532851381 3.9617548276312844
upperback -0.13833604305718983 2.380617764061732 3.8126689416204207
thorax -10.174822134177795 1.024027048221943 0.9423575386468389
lowerneck -22.284435734058135 -3.090872128782916 -1.491501935594043
upperneck 12.235557145669544 -3.9529846528945 1.6728434766378253
head 7.410087793555214 -1.7989158201414048 0.22124324087414188
lclavicle -2.0998071485303275e-15 1.5145487392398396e-15
lhumerus -53.49294902416317 -14.917228257061675 100.524773275153
lradius 95.82027833282335
lwrist 32.83316406389309
lhand -24.511430830156378 2.693321558837919
lfingers 7.12502
lthumb 1.9833884428760888 32.651962557091395
rclavicle -2.0998071485303275e-15 1.5145487392398396e-15
rhumerus -42.53851629579905 10.567078825808391 -95.31955942431757
rradius 108.1911567619453
rwrist -9.906638411985924
rhand -17.454389080383987 39.66602284831396
rfingers 7.12502
rthumb 8.796450274700101 9.585050184220938
48
root -0.22128789829284373 17.056282206384793 20.883416358694127 3.792928231764533 -1.521180345051906 -6.040003360379956
lfemur -36.27408251440301 6.17314463474453 -10.171697246564555
ltibia 100.20865356584
lfoot -0.931314119873389 -4.370415829297388
ltoes -4.980838087590587
rfemur -12.911597724986013 3.4955068653805528 36.5224629504928
rtibia 54.41885430973076
rfoot -19.66682297047445 -17.258509219150564
rtoes -7.180713491669708
lowerback 16.961084816177383 1.1544318652745338 4.398562216265
upperback -0.2903498766805783 2.731861066354223 3.6398712389813683
thorax -10.138435904765702 1.1603143006047854 0.29976904923569914
lowerneck -22.331081191557573 -3.4474414662491406 -1.5549511296538197
upperneck 12.165187192587773 -4.465204198633977 1.882257027092598
head 7.407725705403641 -2.0227855988107337 0.25187569493042034
lclavicle -2.3070251951420005e-15 1.3642466893040691e-15
lhumerus -55.94101490008224 -15.146805899551572 100.75784851933743
lradius 97.13810911221219
lwrist 33.16607322077266
lhand -23.90714526070442 2.533678760835765
lfingers 7.12502
lthumb 2.566941949095364 32.4780435710279
rclavicle -2.3070251951420005e-15 1.3642466893040691e-15
rhumerus -40.92055279888527 11.37962259413123 -95.10777152378228
rradius 109.8399699109866
rwrist -10.254992819246004
rhand -17.440142352267063 39.88117010043891
rfingers 7.12502
rthumb 8.81029985603228 9.800007101046988
49
root -0.2243988304871811 17.18269163176083 21.385180390177702 3.9982096396855558 -0.7625165588337764 -6.100708762180488
lfemur -40.2701595166522 5.077244883559175 -11.128094220566787
ltibia 96.27272651578184
lfoot -2.8199417442041357 -3.8105204512814965
ltoes -6.919595858428007
rfemur -8.965832579711249 2.6706895140041214 36.33020106543344
rtibia 51.3720284126396
rfoot -17.241476503975036 -15.308053999369736
rtoes -10.820759046523492
lowerback 16.626364881663967 1.3543183258478715 4.796227970218873
upperback -0.4827276161708278 3.0502669664336093 3.377073629703213
thorax -10.073607799863277 1.2808169725107057 -0.4519494398825684
lowerneck -22.245223057098965 -3.806481836956669 -1.645570228403824
upperneck 12.24260451098896 -4.9814814333698605 2.064838035290379
head 7.431252476482454 -2.251706065856763 0.27552219789908444
lclavicle -2.743417119961503e-15 1.0477172971922079e-15
lhumerus -58.42426241605873 -15.237192629450515 100.79446926446121
lradius 98.54213762583785
lwrist 33.53096558788798
lhand -23.35525134289988 2.403567641700746
lfingers 7.12502
lthumb 3.099898152027105 32.3347696985772
rclavicle -2.743417119961503e-15 1.0477172971922079e-15
rhumerus -39.871393581642494 11.823747939288268 -94.91492726777649
rradius 111.49767796266049
rwrist -10.628693492355815
rhand -17.443423338180438 40.04494236748469
rfingers 7.12502
rthumb 8.807264940270706 9.994949288098331
50
root -0.2021735449932427 17.359570901905386 22.649412882428436 4.159273498991849 0.09762168459770104 -5.964130484540627
lfemur -42.379319828008015 3.792717678050655 -12.066305812422938
ltibia 91.34569261800934
lfoot -3.810819780498756 -3.3841509489905723
ltoes -8.83663689224908
rfemur -4.111916201636218 1.9954196396655741 36.11539488264415
rtibia 48.68232444829586
rfoot -12.656340692075817 -12.325470335894732
rtoes -12.531136527506169
lowerback 16.235193258009087 1.5956063992193932 5.284193906034551
upperback -0.6692885512497321 3.4223237295397277 3.10835089197741
thorax -9.946457668025424 1.4226826145735394 -1.111990050812615
lowerneck -21.92052864308209 -4.100660318165815 -1.7163150027969651
upperneck 12.486691781388018 -5.410208867039874 2.254910502871717
head 7.479447141262202 -2.4427358547657456 0.3058725639756258
lclavicle -2.2540873772410876e-15 1.4026442388410756e-15
lhumerus -60.41155716905598 -14.726324100499887 100.69228045734287
lradius 100.07604866440232
lwrist 33.89270904422023
lhand -22.957376847237494 2.550901333563784
lfingers 7.12502
lthumb 3.4841189720871055 32.473936003687086
rclavicle -2.2540873772410876e-15 1.4026442388410756e-15
rhumerus -38.88960210638659 12.301814586523601 -94.63333765428065
rradius 113.21198698035292
rwrist -10.882870087827449
rhand -17.339461086353456 40.160555970941616
rfingers 7.12502
rthumb 8.907694820726993 10.199906342123962
51
root -0.17044223238796785 17.55402536591985 23.726017613962938 4.182503589380733 0.8723960704952978 -5.811949370323344
lfemur -43.93100111483465 2.2666453284898 -13.174277606960981
ltibia 84.41628165009183
lfoot -4.463812271547025 -3.595830336825802
ltoes -11.00700747549268
rfemur 0.664319490680807 1.3934862399919288 35.64819918408239
rtibia 44.9945165725438
rfoot -6.4986121573475195 -8.939892783397633
rtoes -12.245401137954637
lowerback 15.6931441364506 1.8139850290387414 5.692037377077688
upperback -0.9109434830457247 3.7382294761278567 2.7768464607994714
thorax -9.795521123902576 1.5427400202058519 -1.8438195453437265
lowerneck -21.423932268986785 -4.393450625244807 -1.7856014657187058
upperneck 12.812368130995916 -5.846490225778485 2.3966695093002808
head 7.526625995756278 -2.639315436131291 0.3226880744794451
lclavicle -2.2419357029040773e-15 1.4114582476161631e-15
lhumerus -62.8157988520534 -13.780444998693902 100.32171800707468
lradius 101.18034711108191
lwrist 34.09459810401053
lhand -22.909046765322536 2.818954857871124
lfingers 7.12502
lthumb 3.53078215147754 32.74172630159074
rclavicle -2.2419357029040773e-15 1.4114582476161631e-15
rhumerus -38.44712652633604 12.594160911220033 -94.40789352937442
rradius 114.57205130768256
rwrist -11.061556672430482
rhand -17.155049654701745 40.14091458282334
rfingers 7.12502
rthumb 9.0856596365865 10.36499046691273
